<svg width="110" height="110" viewBox="0 0 110 110" fill="none" xmlns="http://www.w3.org/2000/svg">
<path fill-rule="evenodd" clip-rule="evenodd" d="M0 110V0H110V110H0Z" fill="#06050C"/>
<path fill-rule="evenodd" clip-rule="evenodd" d="M84 84H71V82H71.347C73.951 82 76.091 80.045 76.326 77.453L76.995 70.091L75.003 69.91L74.334 77.272C74.193 78.827 72.909 80 71.347 80H65C64.449 80 64 79.551 64 79C64 78.449 64.449 78 65 78H70.087C71.128 78 71.984 77.218 72.079 76.173L72.483 71.293C72.729 68.325 75.253 66 78.231 66C81.412 66 84 68.588 84 71.769V84ZM77 56C79.206 56 81 57.794 81 60C81 62.206 79.206 64 77 64C74.794 64 73 62.206 73 60C73 57.794 74.794 56 77 56ZM80.953 64.502C82.205 63.401 83 61.794 83 60C83 56.691 80.309 54 77 54C73.691 54 71 56.691 71 60C71 62.243 72.239 64.2 74.067 65.229C72.084 66.501 70.695 68.647 70.49 71.128L70.087 76H65C63.346 76 62 77.346 62 79C62 80.654 63.346 82 65 82H69V86H86V71.769C86 68.444 83.897 65.608 80.953 64.502Z" fill="#3C72FC"/>
<path fill-rule="evenodd" clip-rule="evenodd" d="M45 80H38.653C37.091 80 35.807 78.827 35.666 77.272L34.997 69.91L33.005 70.091L33.674 77.453C33.909 80.045 36.049 82 38.653 82H39V84H26V71.769C26 68.588 28.588 66 31.769 66C34.747 66 37.272 68.325 37.518 71.293L37.922 76.181C38.016 77.218 38.872 78 39.913 78H45C45.551 78 46 78.449 46 79C46 79.551 45.551 80 45 80ZM33 56C35.206 56 37 57.794 37 60C37 62.206 35.206 64 33 64C30.794 64 29 62.206 29 60C29 57.794 30.794 56 33 56ZM45 76L39.914 76.008L39.51 71.128C39.304 68.647 37.915 66.501 35.933 65.229C37.761 64.2 39 62.243 39 60C39 56.691 36.309 54 33 54C29.691 54 27 56.691 27 60C27 61.794 27.795 63.401 29.047 64.502C26.103 65.608 24 68.444 24 71.769V86H41V82H45C46.654 82 48 80.654 48 79C48 77.346 46.654 76 45 76Z" fill="#3C72FC"/>
<path fill-rule="evenodd" clip-rule="evenodd" d="M61.196 63.946L59.217 62.817L58.731 63.073C58.282 63.31 57.821 63.503 57.36 63.645L56.835 63.807L56.237 66H53.763L53.163 63.807L52.638 63.645C52.178 63.503 51.716 63.311 51.266 63.073L50.781 62.817L48.803 63.945L47.053 62.196L48.182 60.217L47.926 59.731C47.689 59.282 47.496 58.821 47.354 58.36L47.192 57.835L45 57.237V54.763L47.193 54.163L47.355 53.638C47.497 53.178 47.689 52.716 47.927 52.266L48.183 51.781L47.055 49.803L47.355 49.503C47.569 49.644 47.807 49.749 48.055 49.832C48.216 51.186 48.762 52.423 49.584 53.427C49.203 54.228 49 55.103 49 56C49 59.309 51.691 62 55 62C58.309 62 61 59.309 61 56C61 55.102 60.797 54.228 60.416 53.428C61.239 52.424 61.784 51.186 61.946 49.833C62.194 49.75 62.431 49.645 62.646 49.504L62.946 49.804L61.818 51.782L62.074 52.267C62.311 52.717 62.504 53.178 62.646 53.639L62.808 54.164L65.001 54.764V57.238L62.808 57.837L62.646 58.362C62.504 58.822 62.312 59.283 62.074 59.733L61.818 60.219L62.947 62.198L61.196 63.946ZM55 37C53.897 37 53 36.103 53 35C53 33.897 53.897 33 55 33C56.103 33 57 33.897 57 35C57 36.103 56.103 37 55 37ZM46 34.708C46 29.906 49.906 26 54.708 26H55.292C60.094 26 64 29.906 64 34.708C64 36.053 63.682 37.399 63.081 38.603L60.382 44H56V38.858C57.72 38.411 59 36.858 59 35C59 32.794 57.206 31 55 31C52.794 31 51 32.794 51 35C51 36.858 52.28 38.411 54 38.858V44H49.618L46.919 38.603C46.318 37.399 46 36.053 46 34.708ZM55 54C52.586 54 50.566 52.279 50.101 50H59.899C59.434 52.279 57.414 54 55 54ZM49 46H61C61.551 46 62 46.449 62 47C62 47.551 61.551 48 61 48H49C48.449 48 48 47.551 48 47C48 46.449 48.449 46 49 46ZM59 56C59 58.206 57.206 60 55 60C52.794 60 51 58.206 51 56C51 55.607 51.058 55.221 51.168 54.851C52.27 55.575 53.586 56 55 56C56.414 56 57.73 55.575 58.831 54.851C58.942 55.221 59 55.607 59 56ZM64.089 60.166C64.193 59.939 64.289 59.711 64.375 59.481L67 58.763V53.237L64.375 52.519C64.289 52.29 64.194 52.061 64.089 51.834L65.439 49.468L63.852 47.881C63.94 47.601 64 47.309 64 47C64 45.866 63.36 44.888 62.429 44.379L64.87 39.497C65.416 38.403 65.769 37.213 65.918 36H67.434L71 41.944L74.299 36.444C74.464 36.17 74.765 36 75.084 36C75.589 36 76 36.411 76 36.916V44H78V36.916C78 35.308 76.692 34 75.084 34C74.065 34 73.108 34.542 72.584 35.416L71 38.056L68.566 34H65.964C65.597 28.426 60.957 24 55.292 24H54.708C49.043 24 44.403 28.426 44.036 34H41.434L39 38.056L37.416 35.416C36.892 34.542 35.934 34 34.916 34C33.308 34 32 35.308 32 36.916V44H34V36.916C34 36.411 34.411 36 34.916 36C35.236 36 35.537 36.17 35.701 36.445L39 41.944L42.566 36H44.082C44.231 37.214 44.584 38.404 45.13 39.497L47.571 44.379C46.64 44.888 46 45.866 46 47C46 47.309 46.06 47.601 46.148 47.882L44.561 49.469L45.911 51.835C45.807 52.062 45.711 52.29 45.625 52.52L43 53.237V58.763L45.625 59.48C45.711 59.71 45.807 59.938 45.911 60.165L44.561 62.531L48.469 66.439L50.835 65.089C51.062 65.193 51.29 65.289 51.52 65.375L52.237 68H57.763L58.48 65.375C58.71 65.289 58.938 65.193 59.165 65.089L61.531 66.439L65.439 62.531L64.089 60.166Z" fill="#3C72FC"/>
<path fill-rule="evenodd" clip-rule="evenodd" d="M76 50H78V52H76V50Z" fill="#3C72FC"/>
<path fill-rule="evenodd" clip-rule="evenodd" d="M76 46H78V48H76V46Z" fill="#3C72FC"/>
<path fill-rule="evenodd" clip-rule="evenodd" d="M32 50H34V52H32V50Z" fill="#3C72FC"/>
<path fill-rule="evenodd" clip-rule="evenodd" d="M32 46H34V48H32V46Z" fill="#3C72FC"/>
</svg>
