<svg width="17" height="23" viewBox="0 0 17 23" fill="none" xmlns="http://www.w3.org/2000/svg">
<path fill-rule="evenodd" clip-rule="evenodd" d="M8.4232 12.471C10.3615 12.471 11.9329 10.8996 11.9329 8.9613C11.9329 7.02295 10.3615 5.45163 8.4232 5.45163C6.48485 5.45163 4.91353 7.02295 4.91353 8.9613C4.91353 10.8996 6.48485 12.471 8.4232 12.471ZM7.55754 22.5468C1.18319 13.3059 0 12.3575 0 8.96129C0 4.30927 3.77118 0.538086 8.4232 0.538086C13.0752 0.538086 16.8464 4.30927 16.8464 8.96129C16.8464 12.3575 15.6632 13.3059 9.28886 22.5468C8.87055 23.1511 7.97581 23.151 7.55754 22.5468Z" fill="#22B0FE"/>
</svg>
