<svg width="21" height="21" viewBox="0 0 21 21" fill="none" xmlns="http://www.w3.org/2000/svg">
<path fill-rule="evenodd" clip-rule="evenodd" d="M17.3061 13.8666L16.6294 16.799C16.5586 17.106 16.2853 17.3235 15.9702 17.3237C8.75206 17.3237 2.88728 11.472 2.88728 4.24069C2.8983 3.92955 3.11121 3.66209 3.41195 3.58158L6.34434 2.90487C6.39436 2.89429 6.44526 2.8884 6.49637 2.88728C6.76287 2.90073 7.00107 3.05775 7.11849 3.29736L8.4719 6.45532C8.50505 6.54047 8.52351 6.63062 8.52649 6.72194C8.51547 6.92226 8.4264 7.11029 8.27836 7.24571L6.569 8.64424C7.60473 10.8394 9.3715 12.6062 11.5667 13.6419L12.9652 11.9326C13.1006 11.7845 13.2887 11.6955 13.489 11.6844C13.5803 11.6874 13.6705 11.7059 13.7556 11.739L16.9136 13.0924C17.1533 13.2097 17.3104 13.448 17.3237 13.7146C17.3228 13.7657 17.3169 13.8166 17.3061 13.8666H17.3061ZM18.0455 0H2.16546C0.96951 0 0 0.96951 0 2.16546V18.0455C0 19.2414 0.96951 20.2109 2.16546 20.2109H18.0455C19.2414 20.2109 20.2109 19.2414 20.2109 18.0455V2.16546C20.2109 0.96951 19.2414 0 18.0455 0H18.0455Z" fill="#3C72FC"/>
</svg>
