<svg width="34" height="33" viewBox="0 0 34 33" fill="none" xmlns="http://www.w3.org/2000/svg">
<path fill-rule="evenodd" clip-rule="evenodd" d="M9.6063 1.5H24.6063C28.7484 1.5 32.1063 4.85787 32.1063 9V24C32.1063 28.1421 28.7484 31.5 24.6063 31.5H9.6063C5.46417 31.5 2.1063 28.1421 2.1063 24V9C2.1063 4.85787 5.46417 1.5 9.6063 1.5Z" stroke="white" stroke-width="3" stroke-linecap="round" stroke-linejoin="round"/>
<path fill-rule="evenodd" clip-rule="evenodd" d="M23.1014 15.6206C23.4811 18.1812 22.1759 20.6966 19.8638 21.8604C17.5516 23.0241 14.7537 22.5739 12.9233 20.7435C11.0929 18.9132 10.6427 16.1153 11.8065 13.8031C12.9703 11.4909 15.4857 10.1857 18.0462 10.5654C20.6608 10.9531 22.7137 13.0061 23.1014 15.6206Z" stroke="white" stroke-width="3" stroke-linecap="round" stroke-linejoin="round"/>
</svg>
