<svg width="28" height="27" viewBox="0 0 28 27" fill="none" xmlns="http://www.w3.org/2000/svg">
<path fill-rule="evenodd" clip-rule="evenodd" d="M22.8265 22.5H18.9594V15.9258C18.9594 14.3508 18.3969 13.275 16.9976 13.275C15.9289 13.275 15.2961 13.9992 15.0148 14.7023C14.9094 14.9555 14.8812 15.3 14.8812 15.6516V22.5H11.014V10.4766H14.8812V12.15C15.4437 11.3484 16.3226 10.1953 18.3687 10.1953C20.907 10.1953 22.8265 11.8687 22.8265 15.4758V22.5ZM6.89374 8.64844H6.86562C5.62812 8.64844 4.82656 7.72735 4.82656 6.57422C4.82656 5.4 5.64922 4.5 6.91484 4.5C8.18047 4.5 8.9539 5.39297 8.98203 6.57422C8.98203 7.72734 8.18047 8.64844 6.89375 8.64844H6.89374ZM8.69374 22.5H4.82655V10.4766H8.69374V22.5ZM25.1609 0H2.63279C1.40232 0 0.326538 0.88594 0.326538 2.10234V24.6797C0.326538 25.9031 1.40232 26.993 2.63279 26.993H25.1539C26.3914 26.993 27.3195 25.8961 27.3195 24.6797V2.10234C27.3265 0.88593 26.3914 0 25.1609 0H25.1609Z" fill="white"/>
</svg>
