<svg width="34" height="27" viewBox="0 0 34 27" fill="none" xmlns="http://www.w3.org/2000/svg">
<path fill-rule="evenodd" clip-rule="evenodd" d="M33.3063 3.19922C32.0828 3.74063 30.775 4.10625 29.3968 4.275C30.8031 3.43125 31.8859 2.09531 32.3922 0.50625C31.0773 1.28672 29.6218 1.85625 28.0679 2.15859C26.8233 0.82968 25.0514 0 23.0967 0C19.335 0 16.2904 3.05156 16.2904 6.81328C16.2904 7.34766 16.3466 7.86797 16.4662 8.36719C10.8059 8.08594 5.78555 5.37188 2.43159 1.24453C1.848 2.25 1.51049 3.42422 1.51049 4.66875C1.51049 7.03125 2.71989 9.11953 4.54803 10.343C3.42302 10.3149 2.36831 10.0055 1.45424 9.49219C1.45424 9.52031 1.45424 9.54844 1.45424 9.57657C1.45424 12.8813 3.80271 15.6305 6.9176 16.2563C6.34806 16.411 5.74336 16.4953 5.1246 16.4953C4.68866 16.4953 4.25975 16.4531 3.84489 16.3688C4.70975 19.0758 7.22697 21.0445 10.2083 21.1008C7.88089 22.9289 4.94178 24.0188 1.74955 24.0188C1.20111 24.0188 0.659698 23.9836 0.125311 23.9203C3.12769 25.875 6.70665 27 10.5458 27C23.0827 27 29.9312 16.6149 29.9312 7.60782C29.9312 7.31251 29.9242 7.0172 29.9101 6.72891C31.239 5.76563 32.3922 4.57032 33.3063 3.19922Z" fill="white"/>
</svg>
