<svg width="70" height="70" viewBox="0 0 70 70" fill="none" xmlns="http://www.w3.org/2000/svg">
<path fill-rule="evenodd" clip-rule="evenodd" d="M0 70V0H70V70H0Z" fill="#EBF1FF"/>
<path d="M26.296 30.6C26.296 29.752 26.376 28.984 26.536 28.296C26.696 27.592 26.928 26.992 27.232 26.496C27.536 25.984 27.896 25.592 28.312 25.32C28.728 25.048 29.192 24.912 29.704 24.912C30.232 24.912 30.704 25.048 31.12 25.32C31.536 25.592 31.896 25.984 32.2 26.496C32.504 26.992 32.736 27.592 32.896 28.296C33.056 28.984 33.136 29.752 33.136 30.6C33.136 31.448 33.056 32.224 32.896 32.928C32.736 33.616 32.504 34.216 32.2 34.728C31.896 35.224 31.536 35.608 31.12 35.88C30.704 36.152 30.232 36.288 29.704 36.288C29.192 36.288 28.728 36.152 28.312 35.88C27.896 35.608 27.536 35.224 27.232 34.728C26.928 34.216 26.696 33.616 26.536 32.928C26.376 32.224 26.296 31.448 26.296 30.6ZM22.96 30.6C22.96 32.376 23.24 33.912 23.8 35.208C24.376 36.504 25.168 37.512 26.176 38.232C27.2 38.936 28.376 39.288 29.704 39.288C31.08 39.288 32.272 38.936 33.28 38.232C34.288 37.512 35.072 36.504 35.632 35.208C36.192 33.912 36.472 32.376 36.472 30.6C36.472 28.824 36.192 27.288 35.632 25.992C35.072 24.696 34.288 23.696 33.28 22.992C32.272 22.272 31.08 21.912 29.704 21.912C28.376 21.912 27.2 22.272 26.176 22.992C25.168 23.696 24.376 24.696 23.8 25.992C23.24 27.288 22.96 28.824 22.96 30.6ZM39.1259 26.568L43.1579 25.512V39H46.4939V21.912L39.1259 23.472V26.568Z" fill="#3C72FC"/>
</svg>
