<svg width="70" height="70" viewBox="0 0 70 70" fill="none" xmlns="http://www.w3.org/2000/svg">
<path fill-rule="evenodd" clip-rule="evenodd" d="M0 70V0H70V70H0Z" fill="#EBF1FF"/>
<path d="M26.296 30.6C26.296 29.752 26.376 28.984 26.536 28.296C26.696 27.592 26.928 26.992 27.232 26.496C27.536 25.984 27.896 25.592 28.312 25.32C28.728 25.048 29.192 24.912 29.704 24.912C30.232 24.912 30.704 25.048 31.12 25.32C31.536 25.592 31.896 25.984 32.2 26.496C32.504 26.992 32.736 27.592 32.896 28.296C33.056 28.984 33.136 29.752 33.136 30.6C33.136 31.448 33.056 32.224 32.896 32.928C32.736 33.616 32.504 34.216 32.2 34.728C31.896 35.224 31.536 35.608 31.12 35.88C30.704 36.152 30.232 36.288 29.704 36.288C29.192 36.288 28.728 36.152 28.312 35.88C27.896 35.608 27.536 35.224 27.232 34.728C26.928 34.216 26.696 33.616 26.536 32.928C26.376 32.224 26.296 31.448 26.296 30.6ZM22.96 30.6C22.96 32.376 23.24 33.912 23.8 35.208C24.376 36.504 25.168 37.512 26.176 38.232C27.2 38.936 28.376 39.288 29.704 39.288C31.08 39.288 32.272 38.936 33.28 38.232C34.288 37.512 35.072 36.504 35.632 35.208C36.192 33.912 36.472 32.376 36.472 30.6C36.472 28.824 36.192 27.288 35.632 25.992C35.072 24.696 34.288 23.696 33.28 22.992C32.272 22.272 31.08 21.912 29.704 21.912C28.376 21.912 27.2 22.272 26.176 22.992C25.168 23.696 24.376 24.696 23.8 25.992C23.24 27.288 22.96 28.824 22.96 30.6ZM37.9019 39H51.4139V35.856H44.3819L48.7499 31.728C49.4539 31.088 50.0219 30.376 50.4539 29.592C50.8859 28.808 51.1019 27.968 51.1019 27.072C51.1019 26.464 50.9739 25.856 50.7179 25.248C50.4779 24.64 50.1019 24.088 49.5899 23.592C49.0939 23.08 48.4619 22.672 47.6939 22.368C46.9419 22.048 46.0619 21.888 45.0539 21.888C43.6939 21.888 42.5419 22.176 41.5979 22.752C40.6699 23.312 39.9659 24.072 39.4859 25.032C39.0059 25.992 38.7659 27.072 38.7659 28.272H42.1259C42.1259 27.6 42.2379 27.008 42.4619 26.496C42.7019 25.984 43.0299 25.592 43.4459 25.32C43.8779 25.032 44.3899 24.888 44.9819 24.888C45.3979 24.888 45.7659 24.96 46.0859 25.104C46.4059 25.232 46.6779 25.408 46.9019 25.632C47.1259 25.856 47.2939 26.112 47.4059 26.4C47.5179 26.688 47.5739 26.984 47.5739 27.288C47.5739 27.72 47.4939 28.136 47.3339 28.536C47.1739 28.936 46.9419 29.336 46.6379 29.736C46.3339 30.136 45.9659 30.568 45.5339 31.032L37.9019 39Z" fill="#3C72FC"/>
</svg>
