<svg width="93" height="709" viewBox="0 0 93 709" fill="none" xmlns="http://www.w3.org/2000/svg">
<path d="M32.4051 16.7198V60.8768L38.8011 58.6628V18.9338L32.4051 16.7198ZM77.3001 38.6138L36.2181 55.5878L34.6191 56.2028L3.50012 68.9948V76.6208L92.9211 38.6138L3.50012 0.606756V8.23276L35.1111 21.1478L36.5871 21.8858L77.3001 38.6138ZM89.6001 143.624H3.50012V150.389H89.6001V143.624ZM15.9231 255.4L89.6001 225.019V217.393L0.179122 255.4L89.6001 293.407L89.6001 285.781L15.9231 255.4ZM46.5501 361.069C53.7661 361.069 60.1621 362.586 65.7381 365.62C71.3961 368.736 75.8241 372.959 79.0221 378.289C82.3021 383.701 83.9421 389.851 83.9421 396.739C83.9421 403.627 82.3021 409.736 79.0221 415.066C75.8241 420.478 71.3961 424.701 65.7381 427.735C60.1621 430.769 53.7661 432.286 46.5501 432.286C39.4161 432.286 33.0201 430.769 27.3621 427.735C21.7041 424.701 17.2351 420.478 13.9551 415.066C10.7571 409.736 9.15812 403.627 9.15812 396.739C9.15812 389.851 10.7571 383.701 13.9551 378.289C17.2351 372.959 21.7041 368.736 27.3621 365.62C33.0201 362.586 39.4161 361.069 46.5501 361.069ZM46.5501 353.935C40.2361 353.935 34.3731 355.001 28.9611 357.133C23.6311 359.265 18.9571 362.258 14.9391 366.112C11.0031 369.966 7.92812 374.476 5.71412 379.642C3.50012 384.89 2.39312 390.589 2.39312 396.739C2.39312 402.889 3.50012 408.547 5.71412 413.713C7.92812 418.961 11.0031 423.512 14.9391 427.366C18.9571 431.22 23.6311 434.213 28.9611 436.345C34.3731 438.477 40.2361 439.543 46.5501 439.543C52.8641 439.543 58.6861 438.477 64.0161 436.345C69.4281 434.213 74.1021 431.22 78.0381 427.366C82.0561 423.512 85.1721 418.961 87.3861 413.713C89.6001 408.547 90.7071 402.889 90.7071 396.739C90.7071 390.589 89.6001 384.89 87.3861 379.642C85.1721 374.476 82.0561 369.966 78.0381 366.112C74.1021 362.258 69.4281 359.265 64.0161 357.133C58.6861 355.001 52.8641 353.935 46.5501 353.935ZM89.6001 576.587H17.5221L92.9211 511.151H3.50012V517.916H75.3321L0.179122 583.352H89.6001V576.587ZM28.3461 660.459L24.9021 654.924C20.8841 656.318 17.1531 658.286 13.7091 660.828C10.2651 663.37 7.51812 666.527 5.46812 670.299C3.41812 674.071 2.39312 678.458 2.39312 683.46C2.39312 686.986 2.92612 690.266 3.99212 693.3C5.14012 696.334 6.73912 698.958 8.78912 701.172C10.9211 703.468 13.4221 705.231 16.2921 706.461C19.1621 707.773 22.3601 708.429 25.8861 708.429C29.6581 708.429 32.8971 707.773 35.6031 706.461C38.3911 705.149 40.7691 703.427 42.7371 701.295C44.7051 699.245 46.3451 696.949 47.6571 694.407C48.9691 691.865 50.0761 689.405 50.9781 687.027C52.6181 682.435 54.3401 678.581 56.1441 675.465C58.0301 672.349 60.1211 670.012 62.4171 668.454C64.7131 666.896 67.4601 666.117 70.6581 666.117C74.5121 666.117 77.7101 667.47 80.2521 670.176C82.8761 672.882 84.1881 676.736 84.1881 681.738C84.1881 685.51 83.4501 688.667 81.9741 691.209C80.5801 693.751 78.8171 695.842 76.6851 697.482C74.5531 699.204 72.3801 700.516 70.1661 701.418L73.4871 707.322C76.2751 706.174 78.9811 704.493 81.6051 702.279C84.2291 700.065 86.4021 697.277 88.1241 693.915C89.8461 690.635 90.7071 686.699 90.7071 682.107C90.7071 677.679 89.8051 673.702 88.0011 670.176C86.2791 666.65 83.8191 663.903 80.6211 661.935C77.5051 659.967 73.8971 658.983 69.7971 658.983C66.1071 658.983 62.9501 659.68 60.3261 661.074C57.7021 662.55 55.4471 664.436 53.5611 666.732C51.7571 669.028 50.1991 671.488 48.8871 674.112C47.6571 676.818 46.5911 679.401 45.6891 681.861C44.4591 685.141 43.0241 688.257 41.3841 691.209C39.8261 694.243 37.7761 696.703 35.2341 698.589C32.6921 700.475 29.3301 701.418 25.1481 701.418C20.3921 701.418 16.4561 699.819 13.3401 696.621C10.3061 693.505 8.78912 689.159 8.78912 683.583C8.78912 679.483 9.65012 675.957 11.3721 673.005C13.1761 670.053 15.5541 667.552 18.5061 665.502C21.4581 663.534 24.7381 661.853 28.3461 660.459Z" fill="#F2F4F8"/>
</svg>
