<svg width="71" height="56" viewBox="0 0 71 56" fill="none" xmlns="http://www.w3.org/2000/svg">
<path fill-rule="evenodd" clip-rule="evenodd" d="M70.5953 30.226V43.4627C70.5953 43.7844 70.4918 44.0487 70.285 44.2555C70.0782 44.4623 69.8139 44.5657 69.4922 44.5657H66.183V48.978C66.183 50.8164 65.5396 52.379 64.2527 53.6659C62.9658 54.9528 61.4032 55.5963 59.5648 55.5963C57.7263 55.5963 56.1637 54.9528 54.8768 53.6659C53.5899 52.379 52.9465 50.8164 52.9465 48.978V44.5657H17.6488V48.978C17.6488 50.8164 17.0054 52.379 15.7185 53.6659C14.4316 54.9528 12.8689 55.5963 11.0305 55.5963C9.1921 55.5963 7.62945 54.9528 6.34256 53.6659C5.05567 52.379 4.41222 50.8164 4.41222 48.978V44.5657H1.10307C0.78135 44.5657 0.51707 44.4623 0.31024 44.2555C0.10341 44.0487 0 43.7844 0 43.4627V30.226C0 28.0889 0.75261 26.2677 2.25783 24.7625C3.76305 23.2573 5.58423 22.5047 7.72136 22.5047H8.68653L12.3059 8.06156C12.8345 5.90143 14.0295 4.09173 15.8909 2.63248C17.7523 1.17322 19.809 0.443594 22.0611 0.443604H48.5343C50.7864 0.443604 52.8431 1.17323 54.7045 2.63248C56.5659 4.09174 57.7609 5.90143 58.2895 8.06156L61.9088 22.5047H62.874C65.0112 22.5047 66.8324 23.2573 68.3375 24.7625C69.8427 26.2677 70.5953 28.0889 70.5954 30.226H70.5953ZM65.08 33.5352C65.08 32.0185 64.5399 30.7201 63.4599 29.64C62.3798 28.56 61.0814 28.0199 59.5647 28.0199C58.048 28.0199 56.7497 28.56 55.6696 29.64C54.5895 30.7201 54.0495 32.0185 54.0495 33.5352C54.0495 35.0519 54.5895 36.3502 55.6696 37.4303C56.7497 38.5104 58.048 39.0504 59.5647 39.0504C61.0814 39.0504 62.3798 38.5104 63.4599 37.4303C64.5399 36.3502 65.08 35.0519 65.08 33.5352ZM17.7866 22.5047H52.8085L49.7406 10.1988C49.6946 10.0149 49.5338 9.81385 49.258 9.59552C48.9823 9.37719 48.741 9.26802 48.5341 9.26802H22.0609C21.8541 9.26802 21.6128 9.37719 21.337 9.59552C21.0613 9.81385 20.9004 10.0149 20.8545 10.1988L17.7866 22.5047ZM16.5457 33.5352C16.5457 32.0185 16.0057 30.7201 14.9256 29.64C13.8455 28.56 12.5472 28.0199 11.0305 28.0199C9.5138 28.0199 8.21542 28.56 7.13536 29.64C6.05529 30.7201 5.51526 32.0185 5.51526 33.5352C5.51526 35.0519 6.05529 36.3502 7.13536 37.4303C8.21542 38.5104 9.5138 39.0504 11.0305 39.0504C12.5472 39.0504 13.8455 38.5104 14.9256 37.4303C16.0057 36.3502 16.5457 35.0519 16.5457 33.5352Z" fill="white"/>
</svg>
