<svg width="2571" height="1692" viewBox="0 0 2571 1692" fill="none" xmlns="http://www.w3.org/2000/svg">
<path d="M1885.41 519.72V563.877L1891.8 561.663V521.934L1885.41 519.72ZM1930.3 541.614L1889.22 558.588L1887.62 559.203L1856.5 571.995V579.621L1945.92 541.614L1856.5 503.607V511.233L1888.11 524.148L1889.59 524.886L1930.3 541.614ZM1942.6 646.624H1856.5V653.389H1942.6V646.624ZM1868.92 758.4L1942.6 728.019V720.393L1853.18 758.4L1942.6 796.407V788.781L1868.92 758.4ZM1899.55 864.069C1906.77 864.069 1913.16 865.586 1918.74 868.62C1924.4 871.736 1928.82 875.959 1932.02 881.289C1935.3 886.701 1936.94 892.851 1936.94 899.739C1936.94 906.627 1935.3 912.736 1932.02 918.066C1928.82 923.478 1924.4 927.701 1918.74 930.735C1913.16 933.769 1906.77 935.286 1899.55 935.286C1892.42 935.286 1886.02 933.769 1880.36 930.735C1874.7 927.701 1870.24 923.478 1866.96 918.066C1863.76 912.736 1862.16 906.627 1862.16 899.739C1862.16 892.851 1863.76 886.701 1866.96 881.289C1870.24 875.959 1874.7 871.736 1880.36 868.62C1886.02 865.586 1892.42 864.069 1899.55 864.069ZM1899.55 856.935C1893.24 856.935 1887.37 858.001 1881.96 860.133C1876.63 862.265 1871.96 865.258 1867.94 869.112C1864 872.966 1860.93 877.476 1858.71 882.642C1856.5 887.89 1855.39 893.589 1855.39 899.739C1855.39 905.889 1856.5 911.547 1858.71 916.713C1860.93 921.961 1864 926.512 1867.94 930.366C1871.96 934.22 1876.63 937.213 1881.96 939.345C1887.37 941.477 1893.24 942.543 1899.55 942.543C1905.86 942.543 1911.69 941.477 1917.02 939.345C1922.43 937.213 1927.1 934.22 1931.04 930.366C1935.06 926.512 1938.17 921.961 1940.39 916.713C1942.6 911.547 1943.71 905.889 1943.71 899.739C1943.71 893.589 1942.6 887.89 1940.39 882.642C1938.17 877.476 1935.06 872.966 1931.04 869.112C1927.1 865.258 1922.43 862.265 1917.02 860.133C1911.69 858.001 1905.86 856.935 1899.55 856.935ZM1942.6 1079.59H1870.52L1945.92 1014.15H1856.5V1020.92H1928.33L1853.18 1086.35H1942.6V1079.59ZM1881.35 1163.46L1877.9 1157.92C1873.88 1159.32 1870.15 1161.29 1866.71 1163.83C1863.27 1166.37 1860.52 1169.53 1858.47 1173.3C1856.42 1177.07 1855.39 1181.46 1855.39 1186.46C1855.39 1189.99 1855.93 1193.27 1856.99 1196.3C1858.14 1199.33 1859.74 1201.96 1861.79 1204.17C1863.92 1206.47 1866.42 1208.23 1869.29 1209.46C1872.16 1210.77 1875.36 1211.43 1878.89 1211.43C1882.66 1211.43 1885.9 1210.77 1888.6 1209.46C1891.39 1208.15 1893.77 1206.43 1895.74 1204.29C1897.71 1202.24 1899.35 1199.95 1900.66 1197.41C1901.97 1194.86 1903.08 1192.4 1903.98 1190.03C1905.62 1185.43 1907.34 1181.58 1909.14 1178.46C1911.03 1175.35 1913.12 1173.01 1915.42 1171.45C1917.71 1169.9 1920.46 1169.12 1923.66 1169.12C1927.51 1169.12 1930.71 1170.47 1933.25 1173.18C1935.88 1175.88 1937.19 1179.74 1937.19 1184.74C1937.19 1188.51 1936.45 1191.67 1934.97 1194.21C1933.58 1196.75 1931.82 1198.84 1929.69 1200.48C1927.55 1202.2 1925.38 1203.52 1923.17 1204.42L1926.49 1210.32C1929.28 1209.17 1931.98 1207.49 1934.61 1205.28C1937.23 1203.06 1939.4 1200.28 1941.12 1196.91C1942.85 1193.63 1943.71 1189.7 1943.71 1185.11C1943.71 1180.68 1942.81 1176.7 1941 1173.18C1939.28 1169.65 1936.82 1166.9 1933.62 1164.93C1930.51 1162.97 1926.9 1161.98 1922.8 1161.98C1919.11 1161.98 1915.95 1162.68 1913.33 1164.07C1910.7 1165.55 1908.45 1167.44 1906.56 1169.73C1904.76 1172.03 1903.2 1174.49 1901.89 1177.11C1900.66 1179.82 1899.59 1182.4 1898.69 1184.86C1897.46 1188.14 1896.02 1191.26 1894.38 1194.21C1892.83 1197.24 1890.78 1199.7 1888.23 1201.59C1885.69 1203.47 1882.33 1204.42 1878.15 1204.42C1873.39 1204.42 1869.46 1202.82 1866.34 1199.62C1863.31 1196.5 1861.79 1192.16 1861.79 1186.58C1861.79 1182.48 1862.65 1178.96 1864.37 1176C1866.18 1173.05 1868.55 1170.55 1871.51 1168.5C1874.46 1166.53 1877.74 1164.85 1881.35 1163.46Z" fill="#F2F4F8"/>
<path fill-rule="evenodd" clip-rule="evenodd" d="M16.2284 1482.63C1.36074 1436.92 18.0309 1385.82 44.5441 1344.87C71.5139 1303.21 114.032 1271.49 162.945 1256.03C210.454 1241 264.948 1239.31 309.147 1261.2C349.862 1281.37 355.813 1332.73 385.225 1366.12C415.349 1400.32 474.993 1414.17 482.648 1458.19C490.317 1502.29 447.903 1538.68 421.735 1576.09C395.807 1613.15 377.137 1664.04 331.497 1674.24C285.886 1684.43 246.91 1644.55 205.322 1624.46C173.722 1609.18 145.934 1591.97 118.139 1571.13C81.0982 1543.35 30.1509 1525.43 16.2284 1482.63" fill="#FDD2BF" fill-opacity="0.15"/>
<path fill-rule="evenodd" clip-rule="evenodd" d="M2419.72 508.257C2388.28 548.805 2339.26 562.996 2298.21 592.589C2244.95 630.992 2203.71 721.347 2143.75 707.225C2082.82 692.874 2104.54 586.499 2065.01 537.666C2027.22 490.986 1940.47 495.297 1923.91 435.659C1907.43 376.347 1951.09 311.833 1987.52 258.729C2021.59 209.068 2067.51 168.468 2121.69 147.337C2172.8 127.404 2225.01 139.919 2277.54 145.625C2334.79 151.845 2400.81 141.485 2441.09 182.032C2482.02 223.243 2487.82 291.531 2483.78 353.239C2480.09 409.497 2454.83 462.967 2419.72 508.257Z" fill="#BF4040" fill-opacity="0.03"/>
</svg>
