<svg width="13" height="14" viewBox="0 0 13 14" fill="none" xmlns="http://www.w3.org/2000/svg">
<path d="M0.224 4.036L3.338 3.262V13H6.272V0.165999L0.224 1.39V4.036ZM9.0042 11.776C9.0042 12.232 9.1662 12.622 9.4902 12.946C9.8142 13.27 10.2162 13.432 10.6962 13.432C11.2002 13.432 11.6082 13.27 11.9202 12.946C12.2322 12.622 12.3882 12.232 12.3882 11.776C12.3882 11.32 12.2322 10.93 11.9202 10.606C11.6082 10.282 11.2002 10.12 10.6962 10.12C10.2162 10.12 9.8142 10.282 9.4902 10.606C9.1662 10.93 9.0042 11.32 9.0042 11.776Z" fill="#3C72FC"/>
</svg>
