<svg width="17" height="14" viewBox="0 0 17 14" fill="none" xmlns="http://www.w3.org/2000/svg">
<path d="M0.36 13H11.034V10.21H5.994L8.928 7.582C9.468 7.114 9.906 6.598 10.242 6.034C10.578 5.458 10.746 4.828 10.746 4.144C10.746 3.664 10.644 3.19 10.44 2.722C10.236 2.254 9.93 1.828 9.522 1.444C9.126 1.048 8.628 0.736 8.028 0.508C7.428 0.267999 6.738 0.147999 5.958 0.147999C4.878 0.147999 3.96 0.369999 3.204 0.813999C2.46 1.258 1.902 1.852 1.53 2.596C1.158 3.34 0.972 4.162 0.972 5.062H3.96C3.96 4.606 4.032 4.204 4.176 3.856C4.332 3.508 4.554 3.238 4.842 3.046C5.142 2.854 5.484 2.758 5.868 2.758C6.156 2.758 6.408 2.806 6.624 2.902C6.84 2.986 7.02 3.106 7.164 3.262C7.308 3.406 7.416 3.574 7.488 3.766C7.56 3.958 7.596 4.15 7.596 4.342C7.596 4.678 7.53 4.996 7.398 5.296C7.278 5.584 7.092 5.878 6.84 6.178C6.6 6.478 6.312 6.814 5.976 7.186L0.36 13ZM12.6585 11.776C12.6585 12.232 12.8205 12.622 13.1445 12.946C13.4685 13.27 13.8705 13.432 14.3505 13.432C14.8545 13.432 15.2625 13.27 15.5745 12.946C15.8865 12.622 16.0425 12.232 16.0425 11.776C16.0425 11.32 15.8865 10.93 15.5745 10.606C15.2625 10.282 14.8545 10.12 14.3505 10.12C13.8705 10.12 13.4685 10.282 13.1445 10.606C12.8205 10.93 12.6585 11.32 12.6585 11.776Z" fill="#3C72FC"/>
</svg>
