<svg width="16" height="14" viewBox="0 0 16 14" fill="none" xmlns="http://www.w3.org/2000/svg">
<path d="M4.95 6.898C5.946 6.898 6.846 6.778 7.65 6.538C8.454 6.298 9.09 5.938 9.558 5.458C10.038 4.978 10.278 4.378 10.278 3.658C10.278 3.01 10.104 2.422 9.756 1.894C9.42 1.366 8.922 0.946 8.262 0.633999C7.602 0.321999 6.798 0.165999 5.85 0.165999C4.962 0.165999 4.182 0.339999 3.51 0.688C2.838 1.024 2.316 1.492 1.944 2.092C1.584 2.68 1.404 3.346 1.404 4.09H4.194C4.194 3.646 4.35 3.286 4.662 3.01C4.974 2.734 5.37 2.596 5.85 2.596C6.174 2.596 6.438 2.65 6.642 2.758C6.846 2.854 7.002 2.998 7.11 3.19C7.218 3.382 7.272 3.598 7.272 3.838C7.272 4.066 7.218 4.282 7.11 4.486C7.002 4.69 6.84 4.87 6.624 5.026C6.42 5.182 6.174 5.308 5.886 5.404C5.61 5.488 5.298 5.53 4.95 5.53V6.898ZM5.706 13.288C6.738 13.288 7.62 13.132 8.352 12.82C9.084 12.496 9.648 12.058 10.044 11.506C10.44 10.942 10.638 10.294 10.638 9.562C10.638 8.926 10.5 8.38 10.224 7.924C9.948 7.468 9.552 7.096 9.036 6.808C8.52 6.508 7.914 6.292 7.218 6.16C6.534 6.016 5.778 5.944 4.95 5.944V7.492C5.406 7.492 5.802 7.534 6.138 7.618C6.474 7.702 6.75 7.828 6.966 7.996C7.194 8.152 7.362 8.338 7.47 8.554C7.578 8.77 7.632 9.01 7.632 9.274C7.632 9.622 7.554 9.916 7.398 10.156C7.242 10.396 7.026 10.57 6.75 10.678C6.486 10.786 6.174 10.84 5.814 10.84C5.478 10.84 5.154 10.774 4.842 10.642C4.542 10.51 4.302 10.306 4.122 10.03C3.942 9.754 3.852 9.412 3.852 9.004H0.864C0.864 9.556 0.972 10.09 1.188 10.606C1.416 11.122 1.734 11.584 2.142 11.992C2.562 12.4 3.072 12.718 3.672 12.946C4.272 13.174 4.95 13.288 5.706 13.288ZM11.762 11.776C11.762 12.232 11.924 12.622 12.248 12.946C12.572 13.27 12.974 13.432 13.454 13.432C13.958 13.432 14.366 13.27 14.678 12.946C14.99 12.622 15.146 12.232 15.146 11.776C15.146 11.32 14.99 10.93 14.678 10.606C14.366 10.282 13.958 10.12 13.454 10.12C12.974 10.12 12.572 10.282 12.248 10.606C11.924 10.93 11.762 11.32 11.762 11.776Z" fill="#3C72FC"/>
</svg>
