<svg width="17" height="14" viewBox="0 0 17 14" fill="none" xmlns="http://www.w3.org/2000/svg">
<path d="M0.252 10.768H11.808V8.176H9.234L8.928 8.572H4.284L7.002 4.81V9.634L6.66 9.832V13H9.828V0.399999H7.56L0.252 10.768ZM13.4144 11.776C13.4144 12.232 13.5764 12.622 13.9004 12.946C14.2244 13.27 14.6264 13.432 15.1064 13.432C15.6104 13.432 16.0184 13.27 16.3304 12.946C16.6424 12.622 16.7984 12.232 16.7984 11.776C16.7984 11.32 16.6424 10.93 16.3304 10.606C16.0184 10.282 15.6104 10.12 15.1064 10.12C14.6264 10.12 14.2244 10.282 13.9004 10.606C13.5764 10.93 13.4144 11.32 13.4144 11.776Z" fill="#3C72FC"/>
</svg>
