<svg width="474" height="432" viewBox="0 0 474 432" fill="none" xmlns="http://www.w3.org/2000/svg">
<path fill-rule="evenodd" clip-rule="evenodd" d="M6.22837 238.631C-8.63926 192.922 8.03093 141.815 34.5441 100.866C61.5139 59.2108 104.032 27.4921 152.945 12.026C200.454 -2.9959 254.948 -4.69121 299.147 17.2001C339.862 37.3661 345.813 88.7264 375.225 122.12C405.349 156.321 464.993 170.166 472.648 214.187C480.317 258.295 437.903 294.683 411.735 332.087C385.807 369.147 367.137 420.037 321.497 430.238C275.886 440.432 236.91 400.555 195.322 380.456C163.722 365.185 135.934 347.973 108.139 327.127C71.0982 299.345 20.1509 281.434 6.22838 238.631" fill="#FDD2BF" fill-opacity="0.15"/>
</svg>
