<svg width="47" height="47" viewBox="0 0 47 47" fill="none" xmlns="http://www.w3.org/2000/svg">
<path fill-rule="evenodd" clip-rule="evenodd" d="M0 47V0H47V47H0Z" fill="#4D7BF2" fill-opacity="0.17"/>
<path d="M0.5 46.5V0.5H46.5V46.5H0.5Z" stroke="#3C72FC" stroke-opacity="0.3"/>
<path fill-rule="evenodd" clip-rule="evenodd" d="M25.4965 32.6605L24.5055 33.6772C24.0859 34.1077 23.4074 34.1077 22.9923 33.6772L14.3147 24.7786C13.8951 24.3481 13.8951 23.652 14.3147 23.2261L22.9923 14.3229C23.4119 13.8924 24.0904 13.8924 24.5055 14.3229L25.4965 15.3397C25.9205 15.7747 25.9116 16.4846 25.4786 16.9105L20.0998 22.1681H32.9287C33.5224 22.1681 34 22.6582 34 23.2673V24.7328C34 25.3419 33.5224 25.832 32.9287 25.832H20.0998L25.4786 31.0896C25.9161 31.5155 25.925 32.2254 25.4965 32.6604V32.6605Z" fill="#3C72FC"/>
</svg>
