<svg width="71" height="71" viewBox="0 0 71 71" fill="none" xmlns="http://www.w3.org/2000/svg">
<path fill-rule="evenodd" clip-rule="evenodd" d="M0.0173119 70.4998V0.499756H70.0173V70.4998H0.0173119Z" fill="#EBF1FF"/>
<path d="M46.317 42.0172L45.5987 40.7004C45.1168 40.9632 44.817 41.4683 44.817 42.0172H46.317ZM46.317 45.6009H44.8169L44.817 45.607L46.317 45.6009ZM45.5415 47.3711L46.5545 48.4774L46.5545 48.4774L45.5415 47.3711ZM43.7078 47.99L43.5461 49.4813C43.5551 49.4823 43.5641 49.4832 43.5731 49.484L43.7078 47.99ZM33.379 44.3227L34.1941 43.0634L34.1824 43.056L33.379 44.3227ZM26.1979 37.1554L27.4632 36.3497L27.4561 36.3387L26.1979 37.1554ZM22.5235 26.7985L21.0296 26.9337C21.0303 26.9415 21.0311 26.9494 21.0319 26.9572L22.5235 26.7985ZM23.1396 24.9727L24.2465 25.9851L24.2465 25.9851L23.1396 24.9727ZM24.9053 24.1943V22.6943L24.9038 22.6943L24.9053 24.1943ZM28.4958 24.1943V25.6943C28.5007 25.6943 28.5056 25.6943 28.5106 25.6942L28.4958 24.1943ZM30.8895 26.249L32.3767 26.0525L32.3747 26.0386L30.8895 26.249ZM31.7273 29.6057L30.3223 30.131L30.3236 30.1344L31.7273 29.6057ZM31.1888 32.1262L32.2484 33.1879L32.2543 33.182L31.1888 32.1262ZM29.6688 33.6433L28.6091 32.5817C28.1305 33.0594 28.0307 33.7983 28.3654 34.3858L29.6688 33.6433ZM36.8499 40.8107L36.1095 42.1153C36.6959 42.4481 37.4323 42.3487 37.9095 41.8724L36.8499 40.8107ZM38.3699 39.2936L37.3162 38.226L37.3102 38.2319L38.3699 39.2936ZM40.8952 38.7561L40.3683 40.1605L40.3717 40.1617L40.8952 38.7561ZM44.2584 39.5923L44.4675 38.1068L44.4541 38.1051L44.2584 39.5923ZM46.317 42.0172L47.0353 43.3341C47.5054 43.0776 47.8032 42.5899 47.8165 42.0545L46.317 42.0172ZM38.1641 21.5089C37.3408 21.4176 36.5993 22.0111 36.508 22.8345C36.4167 23.6578 37.0101 24.3993 37.8335 24.4906L38.1641 21.5089ZM46.0232 32.6524C46.1159 33.4756 46.8584 34.0679 47.6816 33.9752C48.5049 33.8825 49.0971 33.14 49.0044 32.3168L46.0232 32.6524ZM38.2855 26.3057C37.4724 26.1473 36.6848 26.6782 36.5265 27.4913C36.3681 28.3045 36.899 29.092 37.7121 29.2504L38.2855 26.3057ZM41.2543 32.7843C41.4132 33.5974 42.2011 34.1276 43.0142 33.9687C43.8272 33.8097 44.3575 33.0218 44.1985 32.2088L41.2543 32.7843ZM44.817 42.0172V45.6009H47.817V42.0172H44.817ZM44.817 45.607C44.818 45.8563 44.7137 46.0953 44.5285 46.2648L46.5545 48.4774C47.3626 47.7374 47.8214 46.6909 47.8169 45.5948L44.817 45.607ZM44.5285 46.2648C44.3432 46.4345 44.0942 46.5188 43.8426 46.4961L43.5731 49.484C44.664 49.5824 45.7464 49.2173 46.5545 48.4774L44.5285 46.2648ZM43.8695 46.4988C40.4194 46.1246 37.1055 44.9479 34.194 43.0635L32.5639 45.582C35.8689 47.7212 39.6304 49.0566 43.5461 49.4813L43.8695 46.4988ZM34.1824 43.056C31.4764 41.3398 29.1824 39.0501 27.4632 36.3498L24.9325 37.9609C26.8885 41.0331 29.498 43.6376 32.5756 45.5895L34.1824 43.056ZM27.4561 36.3387C25.5617 33.4201 24.383 30.0974 24.0151 26.6398L21.0319 26.9572C21.4498 30.8843 22.7886 34.6578 24.9397 37.972L27.4561 36.3387ZM24.0174 26.6632C23.995 26.4156 24.0778 26.1695 24.2465 25.9851L22.0328 23.9604C21.2954 24.7665 20.9311 25.8455 21.0296 26.9337L24.0174 26.6632ZM24.2465 25.9851C24.4153 25.8005 24.6548 25.6946 24.9067 25.6943L24.9038 22.6943C23.8119 22.6954 22.7699 23.1544 22.0327 23.9604L24.2465 25.9851ZM24.9053 25.6943H28.4958V22.6943H24.9053V25.6943ZM28.5106 25.6942C28.9615 25.6898 29.342 26.0194 29.4044 26.4593L32.3747 26.0386C32.1007 24.1037 30.4331 22.6752 28.4811 22.6944L28.5106 25.6942ZM29.4025 26.4455C29.5689 27.7047 29.8774 28.9411 30.3223 30.131L33.1323 29.0804C32.7668 28.1027 32.5133 27.087 32.3766 26.0525L29.4025 26.4455ZM30.3236 30.1344C30.4455 30.4581 30.3679 30.8235 30.1232 31.0705L32.2543 33.182C33.3238 32.1025 33.6668 30.4994 33.1311 29.077L30.3236 30.1344ZM30.1291 31.0646L28.6091 32.5817L30.7284 34.705L32.2484 33.1879L30.1291 31.0646ZM28.3654 34.3858C30.203 37.6113 32.8785 40.2816 36.1095 42.1153L37.5902 39.5062C34.8284 37.9388 32.5421 35.6566 30.9721 32.9008L28.3654 34.3858ZM37.9095 41.8724L39.4295 40.3553L37.3102 38.2319L35.7902 39.749L37.9095 41.8724ZM39.4236 40.3612C39.6715 40.1165 40.0406 40.0375 40.3683 40.1605L41.4221 37.3517C40.0004 36.8182 38.3972 37.1591 37.3162 38.226L39.4236 40.3612ZM40.3717 40.1617C41.5634 40.6056 42.8016 40.9134 44.0626 41.0794L44.4541 38.1051C43.417 37.9686 42.3988 37.7154 41.4188 37.3504L40.3717 40.1617ZM44.0492 41.0776C44.5006 41.1412 44.8286 41.531 44.8174 41.9799L47.8165 42.0545C47.8656 40.078 46.4232 38.3823 44.4675 38.1069L44.0492 41.0776ZM45.5987 40.7004L45.5987 40.7004L47.0352 43.3341L47.0353 43.3341L45.5987 40.7004ZM37.8335 24.4906C42.1411 24.9682 45.5398 28.3587 46.0232 32.6524L49.0044 32.3168C48.3637 26.6264 43.8611 22.1406 38.1641 21.5089L37.8335 24.4906ZM37.7121 29.2504C39.5054 29.5996 40.9051 30.9984 41.2543 32.7843L44.1985 32.2088C43.6145 29.2213 41.2749 26.8878 38.2855 26.3057L37.7121 29.2504Z" fill="#3C72FC"/>
</svg>
