<svg width="47" height="47" viewBox="0 0 47 47" fill="none" xmlns="http://www.w3.org/2000/svg">
<path fill-rule="evenodd" clip-rule="evenodd" d="M47 0L47 47L0 47L0 0L47 0Z" fill="#4D7BF2" fill-opacity="0.17"/>
<path d="M46.5 0.5L46.5 46.5L0.5 46.5L0.5 0.5L46.5 0.5Z" stroke="#3C72FC" stroke-opacity="0.3"/>
<path fill-rule="evenodd" clip-rule="evenodd" d="M21.4935 14.3496L22.4845 13.3329C22.9041 12.9024 23.5826 12.9024 23.9977 13.3329L32.6753 22.2315C33.0949 22.662 33.0949 23.3581 32.6753 23.784L23.9977 32.6872C23.5781 33.1177 22.8996 33.1177 22.4845 32.6872L21.4935 31.6705C21.0695 31.2354 21.0784 30.5255 21.5114 30.0996L26.8903 24.842H14.0613C13.4677 24.842 12.99 24.3519 12.99 23.7428V22.2773C12.99 21.6682 13.4677 21.1781 14.0613 21.1781H26.8903L21.5114 15.9205C21.074 15.4946 21.065 14.7847 21.4935 14.3497V14.3496Z" fill="#3C72FC"/>
</svg>
