<svg width="565" height="573" viewBox="0 0 565 573" fill="none" xmlns="http://www.w3.org/2000/svg">
<path fill-rule="evenodd" clip-rule="evenodd" d="M499.718 372.257C468.282 412.805 419.256 426.996 378.21 456.589C324.945 494.992 283.707 585.347 223.749 571.225C162.816 556.874 184.544 450.499 145.011 401.666C107.222 354.986 20.4732 359.297 3.90574 299.659C-12.571 240.347 31.0933 175.833 67.5228 122.729C101.59 73.0682 147.509 32.4677 201.693 11.3367C252.804 -8.59617 305.013 3.91945 357.539 9.6254C414.791 15.8447 480.806 5.48472 521.085 46.0323C562.023 87.2431 567.818 155.531 563.777 217.239C560.092 273.497 534.832 326.967 499.718 372.257Z" fill="#BF4040" fill-opacity="0.03"/>
</svg>
